<svg width="602" height="162" viewBox="0 0 602 162" fill="none" xmlns="http://www.w3.org/2000/svg">
<g id="Frame 1073712743">
<g id="Group 8381" style="transform-origin: center center; animation: 3s ease 0s infinite normal none running idd7b2095ad2a9;">
<g id="Group 8380">
<rect id="Rectangle 3810" x="20" y="45.703" width="185.433" height="63.7958" rx="31.8979" transform="rotate(-6.41024 20 45.703)" fill="black"></rect>
<path id="Title" d="M90.2674 80.8205L93.9151 59.2786L98.059 58.813L94.1728 80.3817L90.2674 80.8205ZM77.6865 82.234L69.1708 62.0586L73.3147 61.593L81.592 81.7952L77.6865 82.234ZM78.2232 82.1737L81.5727 60.6652L85.2695 60.2499L81.9497 81.755L78.2232 82.1737ZM89.8798 80.8641L81.9305 60.625L85.6272 60.2097L93.7852 80.4253L89.8798 80.8641ZM112.499 78.6851C110.392 78.9218 108.472 78.6746 106.74 77.9435C105.025 77.1902 103.62 76.06 102.525 74.5528C101.427 73.0258 100.762 71.2189 100.527 69.132C100.288 67.0054 100.535 65.0858 101.269 63.3732C102 61.6407 103.109 60.228 104.596 59.1352C106.104 58.04 107.901 57.3752 109.987 57.1408C112.094 56.9041 113.995 57.1635 115.69 57.919C117.403 58.6524 118.808 59.7826 119.905 61.3096C121 62.8168 121.666 64.6237 121.903 66.7305C122.137 68.8173 121.889 70.727 121.158 72.4595C120.444 74.1698 119.335 75.5825 117.83 76.6975C116.343 77.7904 114.565 78.4529 112.499 78.6851ZM112.08 74.9586C113.352 74.8157 114.431 74.3925 115.318 73.6891C116.223 72.9635 116.884 72.0439 117.303 70.9303C117.741 69.8144 117.883 68.5707 117.729 67.1994C117.573 65.8081 117.157 64.6171 116.482 63.6262C115.807 62.6354 114.949 61.8965 113.909 61.4097C112.865 60.903 111.698 60.7222 110.406 60.8673C109.154 61.008 108.066 61.4422 107.141 62.17C106.234 62.8757 105.562 63.7865 105.124 64.9024C104.685 66.0182 104.545 67.2718 104.701 68.6631C104.855 70.0344 105.269 71.2155 105.944 72.2064C106.619 73.1972 107.488 73.9449 108.551 74.4494C109.612 74.934 110.788 75.1037 112.08 74.9586ZM142.526 74.9493L146.174 53.4073L150.318 52.9418L146.432 74.5105L142.526 74.9493ZM129.946 76.3627L121.43 56.1873L125.574 55.7218L133.851 75.9239L129.946 76.3627ZM130.482 76.3024L133.832 54.794L137.529 54.3786L134.209 75.8837L130.482 76.3024ZM142.139 74.9928L134.19 54.7538L137.886 54.3385L146.044 74.554L142.139 74.9928ZM154.891 66.6771L153.042 52.6358L157.394 52.1468L158.707 66.2484L154.891 66.6771ZM157.613 73.7072C156.957 73.7809 156.365 73.6159 155.836 73.2124C155.326 72.7868 155.033 72.246 154.96 71.5901C154.886 70.9343 155.052 70.3521 155.458 69.8436C155.881 69.313 156.421 69.0109 157.077 68.9372C157.733 68.8635 158.316 69.0395 158.827 69.4651C159.355 69.8686 159.656 70.3984 159.73 71.0542C159.803 71.7101 159.629 72.3033 159.205 72.8339C158.799 73.3424 158.269 73.6335 157.613 73.7072Z" fill="white"></path>
</g>
<g id="Group 8382">
<rect id="Rectangle 3811" x="181.604" y="46.0002" width="366" height="63" rx="31.5" transform="rotate(1.45872 181.604 46.0002)" fill="#55FFA5"></rect>
<path id="Title_2" d="M220.296 88.9993L220.787 69.7455L224.895 69.8502L224.405 89.1039L220.296 88.9993ZM214.438 71.5945L214.533 67.8457L231.208 68.2703L231.112 72.0191L214.438 71.5945ZM247.197 89.6843L247.732 68.6911L251.84 68.7958L251.306 89.789L247.197 89.6843ZM233.372 89.3323L233.907 68.3091L238.015 68.4437L237.48 89.4669L233.372 89.3323ZM236.656 80.563L236.752 76.7842L249.468 77.1081L249.372 80.8868L236.656 80.563ZM270.41 90.2754L262.907 69.0776L267.016 69.1822L274.758 90.3862L270.41 90.2754ZM253.825 89.8531L262.637 69.0707L266.746 69.1753L258.174 89.9638L253.825 89.8531ZM257.841 85.3339L257.934 81.7051L271.1 82.0403L271.007 85.6691L257.841 85.3339ZM280.277 90.5267L280.767 71.2729L284.876 71.3776L284.386 90.6313L280.277 90.5267ZM274.418 73.1219L274.514 69.3731L291.188 69.7977L291.093 73.5465L274.418 73.1219ZM291.817 76.8961L293.827 69.8649L297.935 69.9696L294.816 76.9724L291.817 76.8961ZM306.951 91.5661C305.891 91.5391 304.905 91.3839 303.992 91.1006C303.079 90.8173 302.268 90.4365 301.56 89.9583C300.853 89.4602 300.266 88.915 299.801 88.323C299.356 87.7315 299.072 87.1141 298.948 86.4707L302.997 85.3734C303.24 86.0598 303.685 86.6613 304.332 87.178C304.98 87.6746 305.803 87.9457 306.802 87.9911C307.861 88.0381 308.727 87.8301 309.399 87.367C310.091 86.9045 310.446 86.2934 310.466 85.5336C310.483 84.8738 310.227 84.3171 309.698 83.8635C309.19 83.3904 308.479 83.0222 307.566 82.7589L304.855 81.9696C303.842 81.6837 302.952 81.2709 302.185 80.7312C301.419 80.1716 300.826 79.4963 300.406 78.7053C299.986 77.9144 299.79 76.999 299.816 75.9594C299.867 73.98 300.556 72.4571 301.883 71.3905C303.231 70.3045 305.105 69.792 307.504 69.8531C308.844 69.8872 310.008 70.1169 310.998 70.5423C312.008 70.9481 312.843 71.5196 313.505 72.2567C314.166 72.9937 314.664 73.8567 314.999 74.8455L310.979 75.9736C310.757 75.2877 310.332 74.6967 309.704 74.2005C309.077 73.7044 308.273 73.4439 307.293 73.4189C306.294 73.3934 305.498 73.6033 304.906 74.0483C304.335 74.4939 304.038 75.1366 304.017 75.9763C304 76.6361 304.207 77.1616 304.637 77.5526C305.087 77.9442 305.7 78.2499 306.474 78.4697L309.216 79.2297C311.004 79.7154 312.384 80.5408 313.354 81.7059C314.325 82.871 314.792 84.1533 314.757 85.5528C314.725 86.7924 314.398 87.8744 313.774 88.7989C313.151 89.7033 312.263 90.4009 311.11 90.8917C309.957 91.3825 308.571 91.6073 306.951 91.5661ZM329.913 92.2108C328.894 92.1849 327.988 92.0018 327.196 91.6615C326.425 91.3017 325.766 90.8548 325.22 90.3207C324.693 89.7872 324.278 89.2164 323.973 88.6084C323.668 88.0005 323.463 87.4151 323.358 86.8522L326.991 85.5943C327.188 86.4796 327.541 87.1788 328.048 87.6919C328.575 88.1855 329.249 88.4427 330.069 88.4636C330.668 88.4788 331.242 88.3534 331.789 88.0872C332.336 87.8211 332.777 87.3822 333.113 86.7705C333.468 86.1594 333.659 85.364 333.684 84.3843L334.027 70.8887L338.106 70.9925L337.732 85.6878C337.705 86.7274 337.491 87.6623 337.09 88.4923C336.689 89.3024 336.132 89.9884 335.417 90.5504C334.723 91.1129 333.902 91.5421 332.954 91.8381C332.026 92.1146 331.013 92.2388 329.913 92.2108ZM356.368 92.4644L348.865 71.2665L352.974 71.3711L360.717 92.5751L356.368 92.4644ZM339.783 92.042L348.595 71.2596L352.704 71.3643L344.132 92.1528L339.783 92.042ZM343.8 87.5228L343.892 83.894L357.058 84.2293L356.966 87.8581L343.8 87.5228ZM373.947 87.8704L363.926 72.4603L365.86 71.9393L368.235 71.7598L376.113 84.1143L373.947 87.8704ZM363.232 92.6392L363.766 71.646L367.875 71.7506L367.341 92.7438L363.232 92.6392ZM373.947 87.8704L371.974 84.0089L380.471 72.0713L382.834 72.3716L384.681 72.9288L373.947 87.8704ZM380.296 93.0737L380.831 72.0805L384.91 72.1844L384.375 93.1776L380.296 93.0737ZM388.47 86.0495L388.557 82.6606L397.554 82.8897L397.468 86.2786L388.47 86.0495ZM405.627 93.7187L406.117 74.465L410.226 74.5696L409.736 93.8234L405.627 93.7187ZM399.768 76.314L399.864 72.5652L416.538 72.9898L416.443 76.7386L399.768 76.314ZM431.315 94.3729L423.812 73.175L427.92 73.2796L435.663 94.4836L431.315 94.3729ZM414.73 93.9506L423.542 73.1681L427.65 73.2728L419.078 94.0613L414.73 93.9506ZM418.746 89.4313L418.839 85.8025L432.004 86.1378L431.912 89.7666L418.746 89.4313ZM445.217 95.087C444.157 95.06 443.171 94.9049 442.258 94.6215C441.345 94.3382 440.534 93.9574 439.826 93.4793C439.118 92.9811 438.532 92.436 438.067 91.844C437.622 91.2524 437.338 90.635 437.214 89.9916L441.263 88.8944C441.506 89.5808 441.951 90.1823 442.598 90.6989C443.245 91.1956 444.069 91.4666 445.068 91.5121C446.127 91.559 446.993 91.351 447.665 90.888C448.357 90.4254 448.712 89.8143 448.732 89.0545C448.748 88.3948 448.492 87.8381 447.964 87.3845C447.456 86.9114 446.745 86.5431 445.831 86.2798L443.12 85.4905C442.107 85.2047 441.218 84.7919 440.451 84.2522C439.685 83.6925 439.092 83.0172 438.672 82.2262C438.252 81.4353 438.055 80.52 438.082 79.4803C438.132 77.501 438.821 75.978 440.149 74.9115C441.497 73.8254 443.371 73.313 445.77 73.3741C447.109 73.4082 448.274 73.6379 449.263 74.0632C450.273 74.4691 451.109 75.0405 451.771 75.7776C452.432 76.5147 452.93 77.3776 453.265 78.3665L449.245 79.4945C449.022 78.8086 448.597 78.2176 447.97 77.7215C447.342 77.2253 446.539 76.9648 445.559 76.9398C444.559 76.9144 443.764 77.1242 443.172 77.5693C442.601 78.0149 442.304 78.6575 442.283 79.4973C442.266 80.1571 442.473 80.6825 442.903 81.0736C443.353 81.4652 443.965 81.7708 444.74 81.9906L447.482 82.7507C449.27 83.2364 450.649 84.0617 451.62 85.2268C452.591 86.3919 453.058 87.6742 453.022 89.0738C452.991 90.3134 452.663 91.3954 452.04 92.3198C451.416 93.2242 450.528 93.9219 449.375 94.4127C448.222 94.9035 446.836 95.1283 445.217 95.087ZM460.834 95.1246L461.324 75.8708L465.433 75.9755L464.942 95.2292L460.834 95.1246ZM454.975 77.7198L455.07 73.971L471.745 74.3956L471.649 78.1444L454.975 77.7198ZM473.909 95.4575L474.443 74.4644L478.552 74.569L478.018 95.5622L473.909 95.4575ZM491.836 96.2742C489.796 96.2222 487.999 95.7163 486.443 94.7564C484.887 93.7765 483.68 92.4653 482.822 90.8229C481.964 89.1606 481.562 87.2697 481.616 85.1504C481.67 83.0311 482.167 81.1731 483.108 79.5766C484.049 77.96 485.312 76.7118 486.895 75.8318C488.498 74.9323 490.319 74.5085 492.359 74.5604C493.798 74.5971 495.131 74.8911 496.358 75.4425C497.584 75.9739 498.646 76.7112 499.542 77.6543C500.459 78.578 501.152 79.636 501.622 80.8283L497.778 82.1409C497.456 81.3924 497.023 80.7412 496.477 80.1871C495.931 79.613 495.302 79.1669 494.59 78.8486C493.879 78.5104 493.103 78.3306 492.263 78.3092C491.044 78.2782 489.946 78.5603 488.971 79.1557C488.016 79.7316 487.255 80.5425 486.688 81.5884C486.141 82.6348 485.85 83.8578 485.814 85.2573C485.779 86.6569 486.017 87.9033 486.529 88.9967C487.042 90.0701 487.771 90.929 488.714 91.5732C489.659 92.1974 490.751 92.5253 491.99 92.5569C492.85 92.5788 493.634 92.4387 494.342 92.1366C495.07 91.8151 495.712 91.3713 496.266 90.8052C496.841 90.2396 497.308 89.5813 497.667 88.8302L501.441 90.3068C500.91 91.5136 500.163 92.575 499.199 93.4907C498.255 94.407 497.157 95.1093 495.904 95.5975C494.652 96.0858 493.295 96.3113 491.836 96.2742ZM504.963 89.4061L505.054 75.2438L509.432 75.3553L508.802 89.5039L504.963 89.4061ZM506.697 96.7426C506.037 96.7258 505.473 96.4814 505.005 96.0093C504.557 95.5178 504.342 94.9421 504.359 94.2823C504.376 93.6225 504.62 93.0686 505.091 92.6204C505.583 92.1528 506.159 91.9274 506.819 91.9442C507.479 91.961 508.033 92.2152 508.48 92.7067C508.948 93.1788 509.174 93.7447 509.157 94.4045C509.14 95.0643 508.886 95.628 508.394 96.0956C507.922 96.5438 507.357 96.7594 506.697 96.7426Z" fill="black"></path>
</g>
<animateTransform attributeType="xml" attributeName="transform" type="translate" repeatCount="indefinite" values="-5.481,-1.9661764705882359;-5.4643145121926855,-2.415777059764625;-5.42269603265229,-2.862811349971097;-5.356334558112101,-3.3055814959508627;-5.26548261401782,-3.742402623622508;-5.150455254527564,-4.171602830079989;-5.004069435503816,-4.5873753355226095;-4.835000335184657,-4.9907038553415415;-4.643920084784692,-5.380069387124745;-4.431555802345396,-5.753990277471119;-4.198689592735119,-6.111022221990496;-3.940259732693798,-6.442818343394303;-3.664132240288541,-6.753793720840538;-3.3713803122711883,-7.042791408870889;-3.0631179581120684,-7.308711684031613;-2.7405000000000017,-7.550512044873538;-2.4011965540806197,-7.758312273208005;-2.0513157203811057,-7.939426288253752;-1.6922023178235632,-8.093198746203166;-1.3252228813240234,-8.219044496428575;-0.9517656617924435,-8.31644858148225;-0.5725136331584204,-8.375189142405493;-0.19108025039996462,-8.404596771878051;0.19108025039996782,-8.404596771878051;0.5725136331584224,-8.375189142405493;0.9517656617924456,-8.31644858148225;1.325222881324024,-8.219044496428575;1.6922023178235635,-8.093198746203166;2.0513157203811057,-7.939426288253752;2.40119655408062,-7.758312273208003;2.7405000000000035,-7.550512044873536;3.0631179581120684,-7.308711684031612;3.371380312271188,-7.042791408870888;3.6641322402885397,-6.7537937208405365;3.9402597326937956,-6.442818343394302;4.198689592735118,-6.111022221990498;4.431555802345396,-5.753990277471118;4.643920084784689,-5.380069387124747;4.835000335184653,-4.990703855341545;5.004069435503812,-4.587375335522612;5.15045525452756,-4.171602830079992;5.265482614017817,-3.742402623622512;5.356334558112099,-3.305581495950869;5.42269603265229,-2.8628113499711043;5.4643145121926855,-2.415777059764633;5.481,-1.966176470588247;5.464314512192686,-1.5165758814118586;5.422696032652292,-1.0695415912053867;5.356334558112103,-0.6267714452256218;5.265482614017822,-0.1899503175539789;5.150455254527566,0.2392498889035024;5.004069435503818,0.6550223943461215;4.83500033518466,1.0583509141650544;4.643920084784698,1.4477164459482585;4.4315558023454065,1.8216373362946312;4.198689592735129,2.178669280814009;3.9402597326938076,2.510465402217818;3.664132240288552,2.821440779664054;3.3713803122712003,3.1104384676944066;3.0631179581120818,3.3763587428551323;2.7405000000000186,3.618159103697052;2.4011965540806406,3.8259593320315193;2.051315720381126,4.00707334707727;1.6922023178235803,4.160845805026687;1.3252228813240392,4.286691555252099;0.9517656617924584,4.3840956403057785;0.5725136331584375,4.44283620122902;0.1910802503999819,4.472243830701579;-0.19108025039995363,4.472243830701581;-0.5725136331584121,4.442836201229024;-0.9517656617924345,4.384095640305784;-1.3252228813240141,4.286691555252106;-1.6922023178235577,4.160845805026696;-2.0513157203811017,4.007073347077283;-2.4011965540806144,3.8259593320315366;-2.7404999999999973,3.618159103697069;-3.0631179581120698,3.3763587428551416;-3.3713803122711896,3.1104384676944186;-3.664132240288543,2.8214407796640675;-3.940259732693802,2.510465402217829;-4.198689592735125,2.1786692808140193;-4.4315558023454,1.8216373362946414;-4.643920084784697,1.4477164459482617;-4.835000335184663,1.0583509141650542;-5.004069435503821,0.6550223943461226;-5.150455254527569,0.2392498889034995;-5.2654826140178255,-0.18995031755398423;-5.356334558112106,-0.6267714452256321;-5.4226960326522935,-1.069541591205399;-5.464314512192686,-1.516575881411871" dur="3s"></animateTransform></g>
</g>
<style>@keyframes idd7b2095ad2a9 {0% { transform: rotateX(-1.4008620689655156deg) rotateY(13.049999999999997deg) translate(-5.481px,-1.9661764705882359px); }1.1111111111111112% { transform: rotateX(-2.9696654384233656deg) rotateY(13.01027264807782deg) translate(-5.4643145121926855px,-2.415777059764625px); }2.2222222222222223% { transform: rotateX(-4.529514152197999deg) rotateY(12.9111810301245deg) translate(-5.42269603265229px,-2.862811349971097px); }3.3333333333333335% { transform: rotateX(-6.074483873391765deg) rotateY(12.753177519314526deg) translate(-5.356334558112101px,-3.3055814959508627px); }4.444444444444445% { transform: rotateX(-7.598695525776403deg) rotateY(12.536863366709095deg) translate(-5.26548261401782px,-3.742402623622508px); }5.555555555555555% { transform: rotateX(-9.096315293793065deg) rotateY(12.262988701256107deg) translate(-5.150455254527564px,-4.171602830079989px); }6.666666666666667% { transform: rotateX(-10.54708142526362deg) rotateY(11.914451036913846deg) translate(-5.004069435503816px,-4.5873753355226095px); }7.777777777777778% { transform: rotateX(-11.954426424631812deg) rotateY(11.511905559963466deg) translate(-4.835000335184657px,-4.9907038553415415px); }8.88888888888889% { transform: rotateX(-13.31304999612493deg) rotateY(11.056952582820694deg) translate(-4.643920084784692px,-5.380069387124745px); }10% { transform: rotateX(-14.617782166873772deg) rotateY(10.551323338917607deg) translate(-4.431555802345396px,-5.753990277471119px); }11.11111111111111% { transform: rotateX(-15.86358328691265deg) rotateY(9.99687998270266deg) translate(-4.198689592735119px,-6.111022221990496px); }12.222222222222221% { transform: rotateX(-17.021328373912795deg) rotateY(9.381570792128088deg) translate(-3.940259732693798px,-6.442818343394303px); }13.333333333333334% { transform: rotateX(-18.106423081750645deg) rotateY(8.724124381639383deg) translate(-3.664132240288541px,-6.753793720840538px); }14.444444444444445% { transform: rotateX(-19.114830449672642deg) rotateY(8.027095981598068deg) translate(-3.3713803122711883px,-7.042791408870889px); }15.555555555555555% { transform: rotateX(-20.042713183197336deg) rotateY(7.293137995504924deg) translate(-3.0631179581120684px,-7.308711684031613px); }16.666666666666668% { transform: rotateX(-20.886433654115383deg) rotateY(6.525000000000003deg) translate(-2.7405000000000017px,-7.550512044873538px); }17.77777777777778% { transform: rotateX(-21.611516552655193deg) rotateY(5.717134652572904deg) translate(-2.4011965540806197px,-7.758312273208005px); }18.88888888888889% { transform: rotateX(-22.24348253290513deg) rotateY(4.884085048526439deg) translate(-2.0513157203811057px,-7.939426288253752px); }20% { transform: rotateX(-22.780044886176896deg) rotateY(4.029053137675147deg) translate(-1.6922023178235632px,-8.093198746203166px); }21.11111111111111% { transform: rotateX(-23.219161830723685deg) rotateY(3.1552925745810074deg) translate(-1.3252228813240234px,-8.219044496428575px); }22.22222222222222% { transform: rotateX(-23.559036511740196deg) rotateY(2.2661087185534323deg) translate(-0.9517656617924435px,-8.31644858148225px); }23.333333333333332% { transform: rotateX(-23.76400152317187deg) rotateY(1.3631276979962343deg) translate(-0.5725136331584204px,-8.375189142405493px); }24.444444444444443% { transform: rotateX(-23.866614351791224deg) rotateY(0.45495297714277066deg) translate(-0.19108025039996462px,-8.404596771878051px); }25.555555555555557% { transform: rotateX(-23.866614351791224deg) rotateY(-0.4549529771427801deg) translate(0.19108025039996782px,-8.404596771878051px); }26.666666666666668% { transform: rotateX(-23.764001523171867deg) rotateY(-1.363127697996244deg) translate(0.5725136331584224px,-8.375189142405493px); }27.77777777777778% { transform: rotateX(-23.559036511740196deg) rotateY(-2.2661087185534416deg) translate(0.9517656617924456px,-8.31644858148225px); }28.88888888888889% { transform: rotateX(-23.219161830723685deg) rotateY(-3.1552925745810123deg) translate(1.325222881324024px,-8.219044496428575px); }30% { transform: rotateX(-22.78004488617689deg) rotateY(-4.029053137675154deg) translate(1.6922023178235635px,-8.093198746203166px); }31.11111111111111% { transform: rotateX(-22.243482532905123deg) rotateY(-4.8840850485264475deg) translate(2.0513157203811057px,-7.939426288253752px); }32.22222222222222% { transform: rotateX(-21.611516552655182deg) rotateY(-5.717134652572911deg) translate(2.40119655408062px,-7.758312273208003px); }33.333333333333336% { transform: rotateX(-20.88643365411538deg) rotateY(-6.5250000000000075deg) translate(2.7405000000000035px,-7.550512044873536px); }34.44444444444444% { transform: rotateX(-20.042713183197332deg) rotateY(-7.293137995504926deg) translate(3.0631179581120684px,-7.308711684031612px); }35.55555555555556% { transform: rotateX(-19.114830449672635deg) rotateY(-8.02709598159807deg) translate(3.371380312271188px,-7.042791408870888px); }36.666666666666664% { transform: rotateX(-18.106423081750638deg) rotateY(-8.724124381639385deg) translate(3.6641322402885397px,-6.7537937208405365px); }37.77777777777778% { transform: rotateX(-17.021328373912795deg) rotateY(-9.381570792128088deg) translate(3.9402597326937956px,-6.442818343394302px); }38.888888888888886% { transform: rotateX(-15.863583286912656deg) rotateY(-9.99687998270266deg) translate(4.198689592735118px,-6.111022221990498px); }40% { transform: rotateX(-14.617782166873768deg) rotateY(-10.551323338917607deg) translate(4.431555802345396px,-5.753990277471118px); }41.111111111111114% { transform: rotateX(-13.31304999612494deg) rotateY(-11.05695258282069deg) translate(4.643920084784689px,-5.380069387124747px); }42.22222222222222% { transform: rotateX(-11.954426424631826deg) rotateY(-11.511905559963461deg) translate(4.835000335184653px,-4.990703855341545px); }43.333333333333336% { transform: rotateX(-10.54708142526363deg) rotateY(-11.91445103691384deg) translate(5.004069435503812px,-4.587375335522612px); }44.44444444444444% { transform: rotateX(-9.096315293793076deg) rotateY(-12.262988701256097deg) translate(5.15045525452756px,-4.171602830079992px); }45.55555555555556% { transform: rotateX(-7.598695525776414deg) rotateY(-12.536863366709092deg) translate(5.265482614017817px,-3.742402623622512px); }46.666666666666664% { transform: rotateX(-6.0744838733917845deg) rotateY(-12.753177519314521deg) translate(5.356334558112099px,-3.305581495950869px); }47.77777777777778% { transform: rotateX(-4.529514152198026deg) rotateY(-12.9111810301245deg) translate(5.42269603265229px,-2.8628113499711043px); }48.888888888888886% { transform: rotateX(-2.9696654384233914deg) rotateY(-13.010272648077823deg) translate(5.4643145121926855px,-2.415777059764633px); }50% { transform: rotateX(-1.4008620689655507deg) rotateY(-13.05deg) translate(5.481px,-1.966176470588247px); }51.111111111111114% { transform: rotateX(0.1679413004922859deg) rotateY(-13.010272648077828deg) translate(5.464314512192686px,-1.5165758814118586px); }52.22222222222222% { transform: rotateX(1.7277900142669194deg) rotateY(-12.911181030124503deg) translate(5.422696032652292px,-1.0695415912053867px); }53.333333333333336% { transform: rotateX(3.2727597354606814deg) rotateY(-12.75317751931453deg) translate(5.356334558112103px,-0.6267714452256218px); }54.44444444444444% { transform: rotateX(4.796971387845315deg) rotateY(-12.5368633667091deg) translate(5.265482614017822px,-0.1899503175539789px); }55.55555555555556% { transform: rotateX(6.294591155861975deg) rotateY(-12.262988701256111deg) translate(5.150455254527566px,0.2392498889035024px); }56.666666666666664% { transform: rotateX(7.745357287332524deg) rotateY(-11.914451036913864deg) translate(5.004069435503818px,0.6550223943461215px); }57.77777777777778% { transform: rotateX(9.15270228670072deg) rotateY(-11.511905559963486deg) translate(4.83500033518466px,1.0583509141650544px); }58.888888888888886% { transform: rotateX(10.51132585819384deg) rotateY(-11.056952582820715deg) translate(4.643920084784698px,1.4477164459482585px); }60% { transform: rotateX(11.816058028942678deg) rotateY(-10.551323338917635deg) translate(4.4315558023454065px,1.8216373362946312px); }61.111111111111114% { transform: rotateX(13.061859148981558deg) rotateY(-9.996879982702689deg) translate(4.198689592735129px,2.178669280814009px); }62.22222222222222% { transform: rotateX(14.219604235981711deg) rotateY(-9.38157079212812deg) translate(3.9402597326938076px,2.510465402217818px); }63.333333333333336% { transform: rotateX(15.304698943819561deg) rotateY(-8.724124381639413deg) translate(3.664132240288552px,2.821440779664054px); }64.44444444444444% { transform: rotateX(16.31310631174156deg) rotateY(-8.027095981598098deg) translate(3.3713803122712003px,3.1104384676944066px); }65.55555555555556% { transform: rotateX(17.240989045266268deg) rotateY(-7.293137995504955deg) translate(3.0631179581120818px,3.3763587428551323px); }66.66666666666667% { transform: rotateX(18.0847095161843deg) rotateY(-6.525000000000046deg) translate(2.7405000000000186px,3.618159103697052px); }67.77777777777777% { transform: rotateX(18.80979241472411deg) rotateY(-5.717134652572954deg) translate(2.4011965540806406px,3.8259593320315193px); }68.88888888888889% { transform: rotateX(19.441758394974066deg) rotateY(-4.8840850485264955deg) translate(2.051315720381126px,4.00707334707727px); }70% { transform: rotateX(19.97832074824584deg) rotateY(-4.029053137675198deg) translate(1.6922023178235803px,4.160845805026687px); }71.11111111111111% { transform: rotateX(20.417437692792625deg) rotateY(-3.1552925745810456deg) translate(1.3252228813240392px,4.286691555252099px); }72.22222222222223% { transform: rotateX(20.757312373809146deg) rotateY(-2.2661087185534745deg) translate(0.9517656617924584px,4.3840956403057785px); }73.33333333333333% { transform: rotateX(20.962277385240835deg) rotateY(-1.3631276979962814deg) translate(0.5725136331584375px,4.44283620122902px); }74.44444444444444% { transform: rotateX(21.0648902138602deg) rotateY(-0.45495297714281313deg) translate(0.1910802503999819px,4.472243830701579px); }75.55555555555556% { transform: rotateX(21.0648902138602deg) rotateY(0.4549529771427471deg) translate(-0.19108025039995363px,4.472243830701581px); }76.66666666666667% { transform: rotateX(20.962277385240846deg) rotateY(1.3631276979962155deg) translate(-0.5725136331584121px,4.442836201229024px); }77.77777777777777% { transform: rotateX(20.75731237380917deg) rotateY(2.2661087185534132deg) translate(-0.9517656617924345px,4.384095640305784px); }78.88888888888889% { transform: rotateX(20.41743769279265deg) rotateY(3.155292574580984deg) translate(-1.3252228813240141px,4.286691555252106px); }80% { transform: rotateX(19.97832074824586deg) rotateY(4.0290531376751355deg) translate(-1.6922023178235577px,4.160845805026696px); }81.11111111111111% { transform: rotateX(19.4417583949741deg) rotateY(4.884085048526429deg) translate(-2.0513157203811017px,4.007073347077283px); }82.22222222222223% { transform: rotateX(18.809792414724164deg) rotateY(5.717134652572888deg) translate(-2.4011965540806144px,3.8259593320315366px); }83.33333333333333% { transform: rotateX(18.084709516184354deg) rotateY(6.524999999999993deg) translate(-2.7404999999999973px,3.618159103697069px); }84.44444444444444% { transform: rotateX(17.2409890452663deg) rotateY(7.293137995504926deg) translate(-3.0631179581120698px,3.3763587428551416px); }85.55555555555556% { transform: rotateX(16.313106311741603deg) rotateY(8.02709598159807deg) translate(-3.3713803122711896px,3.1104384676944186px); }86.66666666666667% { transform: rotateX(15.304698943819606deg) rotateY(8.724124381639387deg) translate(-3.664132240288543px,2.8214407796640675px); }87.77777777777777% { transform: rotateX(14.219604235981741deg) rotateY(9.3815707921281deg) translate(-3.940259732693802px,2.510465402217829px); }88.88888888888889% { transform: rotateX(13.061859148981588deg) rotateY(9.996879982702675deg) translate(-4.198689592735125px,2.1786692808140193px); }90% { transform: rotateX(11.816058028942717deg) rotateY(10.55132333891762deg) translate(-4.4315558023454px,1.8216373362946414px); }91.11111111111111% { transform: rotateX(10.511325858193857deg) rotateY(11.056952582820704deg) translate(-4.643920084784697px,1.4477164459482617px); }92.22222222222223% { transform: rotateX(9.152702286700725deg) rotateY(11.511905559963482deg) translate(-4.835000335184663px,1.0583509141650542px); }93.33333333333333% { transform: rotateX(7.745357287332529deg) rotateY(11.914451036913858deg) translate(-5.004069435503821px,0.6550223943461226px); }94.44444444444444% { transform: rotateX(6.294591155861966deg) rotateY(12.262988701256118deg) translate(-5.150455254527569px,0.2392498889034995px); }95.55555555555556% { transform: rotateX(4.796971387845293deg) rotateY(12.536863366709108deg) translate(-5.2654826140178255px,-0.18995031755398423px); }96.66666666666667% { transform: rotateX(3.272759735460642deg) rotateY(12.753177519314537deg) translate(-5.356334558112106px,-0.6267714452256321px); }97.77777777777777% { transform: rotateX(1.7277900142668758deg) rotateY(12.911181030124505deg) translate(-5.4226960326522935px,-1.069541591205399px); }98.88888888888889% { transform: rotateX(0.16794130049224204deg) rotateY(13.010272648077823deg) translate(-5.464314512192686px,-1.516575881411871px); }100% { transform: rotateX(-1.4008620689655156deg) rotateY(13.049999999999997deg) translate(-5.481px,-1.9661764705882359px); }}</style></svg>